<?xml version="1.0" standalone="no"?><!DOCTYPE svg PUBLIC "-//W3C//DTD SVG 1.1//EN" "http://www.w3.org/Graphics/SVG/1.1/DTD/svg11.dtd"><svg class="icon" width="200px" height="200.00px" viewBox="0 0 1024 1024" version="1.1" xmlns="http://www.w3.org/2000/svg"><path d="M512 938.652444c-235.264 0-426.666667-191.402667-426.666667-426.666666s191.402667-426.666667 426.666667-426.666667 426.666667 191.402667 426.666667 426.666667c0 55.552-10.538667 109.639111-31.317334 160.739555a42.709333 42.709333 0 0 1-55.608889 23.438223 42.695111 42.695111 0 0 1-23.452444-55.608889A339.256889 339.256889 0 0 0 853.333333 511.985778c0-188.202667-153.130667-341.333333-341.333333-341.333334s-341.333333 153.130667-341.333333 341.333334 153.130667 341.333333 341.333333 341.333333c53.333333 0 104.391111-11.946667 151.736889-35.484444a42.666667 42.666667 0 0 1 38.001778 76.416A422.684444 422.684444 0 0 1 512 938.652444" fill="#000000" /><path d="M512 369.763556c-78.421333 0-142.222222 63.800889-142.222222 142.222222s63.800889 142.222222 142.222222 142.222222a142.222222 142.222222 0 0 0 142.222222-142.222222c0-78.421333-63.800889-142.222222-142.222222-142.222222m0 369.777777c-125.468444 0-227.555556-102.087111-227.555556-227.555555s102.087111-227.555556 227.555556-227.555556 227.555556 102.087111 227.555556 227.555556a227.498667 227.498667 0 0 1-227.555556 227.555555" fill="#000000" /><path d="M765.368889 782.791111c-7.822222 0-15.431111-0.768-22.755556-2.275555C689.749333 769.592889 654.222222 722.488889 654.222222 663.324444V327.096889a42.666667 42.666667 0 1 1 85.333334 0v336.213333c0 10.993778 2.631111 29.980444 20.337777 33.649778 19.569778 3.982222 49.322667-12.202667 68.750223-57.230222a42.680889 42.680889 0 0 1 78.364444 33.806222c-33.393778 77.312-91.562667 109.269333-141.653333 109.269333" fill="#000000" /></svg>