<?xml version="1.0" standalone="no"?><!DOCTYPE svg PUBLIC "-//W3C//DTD SVG 1.1//EN" "http://www.w3.org/Graphics/SVG/1.1/DTD/svg11.dtd"><svg class="icon" width="200px" height="200.00px" viewBox="0 0 1024 1024" version="1.1" xmlns="http://www.w3.org/2000/svg"><path d="M896 767.985778a42.666667 42.666667 0 0 1-42.666667-42.666667v-426.666667a42.666667 42.666667 0 1 1 85.333334 0v426.666667a42.666667 42.666667 0 0 1-42.666667 42.666667M184.888889 324.551111c-7.708444 0-14.222222 8.561778-14.222222 18.673778V680.675556c0 10.126222 6.513778 18.688 14.222222 18.688h108.032c13.240889 0 26.168889 2.702222 38.4 8.035555l332.842667 145.408c1.308444 0.568889 5.361778 2.304 10.396444-0.995555 1.891556-1.251556 8.106667-6.115556 8.106667-16.768V189.838222c0-10.695111-6.243556-15.559111-8.163556-16.782222-5.105778-3.356444-9.130667-1.521778-10.467555-0.924444L343.537778 316.088889a95.402667 95.402667 0 0 1-39.352889 8.462222H184.888889z m483.541333 614.471111a95.715556 95.715556 0 0 1-38.414222-8.035555L297.187556 785.592889a10.752 10.752 0 0 0-4.266667-0.910222H184.888889c-54.897778 0-99.555556-46.677333-99.555556-104.021334V343.224889c0-57.344 44.657778-104.007111 99.555556-104.007111h119.296a10.439111 10.439111 0 0 0 4.394667-0.967111L629.077333 94.293333a95.971556 95.971556 0 0 1 91.804445 7.111111C750.378667 120.490667 768 153.571556 768 189.838222v645.191111c0 36.067556-17.464889 69.020444-46.705778 88.177778a96.440889 96.440889 0 0 1-52.864 15.815111z" fill="#000000" /></svg>